<svg xmlns="http://www.w3.org/2000/svg" viewBox="7413.228 8824.87 30.343 20.794"><defs><style>.a{fill:none;}.b{fill:#434343;}.c,.d{stroke:none;}.d{fill:#fff;}</style></defs><g transform="translate(7346 8217)"><g class="a" transform="translate(83.922 609.37)"><path class="c" d="M0,12.181c0-1.59,1.657-2.946,3.979-3.464A4.742,4.742,0,0,1,2.4,5.077,4.637,4.637,0,0,1,4.288,1.2,1.157,1.157,0,0,1,4.353.537C4.5.145,5.032-.235,5.025.18c-.006.368.311.477.605.5A3.086,3.086,0,0,1,6.074.647C8.1.647,9.75,2.63,9.75,5.077A4.74,4.74,0,0,1,8.17,8.717c2.322.518,3.979,1.874,3.979,3.464,0,1.019-3.037,1.529-6.075,1.529S0,13.2,0,12.181Z"/><path class="d" d="M 6.074019432067871 13.71023559570312 C 9.111849784851074 13.71023559570312 12.14885997772217 13.20033550262451 12.14885997772217 12.18135547637939 C 12.14885997772217 10.59101486206055 10.49207973480225 9.235694885253906 8.170109748840332 8.717494964599609 C 9.125139236450195 7.916924953460693 9.750479698181152 6.585695266723633 9.750479698181152 5.076735019683838 C 9.750479698181152 2.630195140838623 8.104499816894531 0.6470451951026917 6.074019432067871 0.6470451951026917 C 5.923869609832764 0.6470451951026917 5.776009559631348 0.6579551696777344 5.630579471588135 0.6790452003479004 C 5.336469650268555 0.6572751998901367 5.018869400024414 0.5487651824951172 5.025139331817627 0.1803251802921295 C 5.027183532714844 0.0524919182062149 4.977784156799316 -6.829833978372335e-07 4.904233455657959 -6.829833978372335e-07 C 4.738876342773438 -6.829833978372335e-07 4.451580047607422 0.2655461728572845 4.353289604187012 0.53742516040802 C 4.30674934387207 0.6624651551246643 4.213179588317871 0.9786551594734192 4.288309574127197 1.204125165939331 C 3.161039590835571 1.960695147514343 2.398379564285278 3.411315202713013 2.398379564285278 5.076735019683838 C 2.398379564285278 6.584865093231201 3.023719549179077 7.916924953460693 3.978749513626099 8.717494964599609 C 1.656779527664185 9.235694885253906 -4.879760808762512e-07 10.59101486206055 -4.879760808762512e-07 12.18135547637939 C -4.879760808762512e-07 13.20033550262451 3.037009477615356 13.71023559570312 6.074019432067871 13.71023559570312 M 6.074019432067871 15.21023559570312 C 4.376029491424561 15.21023559570312 2.776669502258301 15.06160545349121 1.570579528808594 14.79171562194824 C 0.8198695182800293 14.62372493743896 0.2321995049715042 14.41392517089844 -0.2260104864835739 14.150315284729 C -1.334490537643433 13.51261520385742 -1.500000476837158 12.64297485351562 -1.500000476837158 12.18135547637939 C -1.500000476837158 10.97653484344482 -0.9162304997444153 9.813815116882324 0.1437595188617706 8.907364845275879 C 0.5554108619689941 8.555346488952637 1.032074928283691 8.244802474975586 1.561166405677795 7.981669425964355 C 1.13320255279541 7.105080604553223 0.8983795046806335 6.105337142944336 0.8983795046806335 5.076735019683838 C 0.8983795046806335 3.275176286697388 1.618841886520386 1.575614094734192 2.818583011627197 0.4614406824111938 C 2.854820251464844 0.2868917882442474 2.902411699295044 0.1363754868507385 2.944593906402588 0.02206243015825748 C 3.220664262771606 -0.7352108955383301 3.981162071228027 -1.500004768371582 4.904229640960693 -1.500004768371582 C 5.340939521789551 -1.500004768371582 5.748559474945068 -1.330204844474792 6.051999568939209 -1.021884799003601 C 6.104801654815674 -0.9682328701019287 6.153459548950195 -0.9112389087677002 6.197859287261963 -0.8512445688247681 C 7.569049835205078 -0.8134080171585083 8.886014938354492 -0.1484103500843048 9.827919960021973 0.9864552021026611 C 10.74526977539062 2.091745138168335 11.25047969818115 3.544365167617798 11.25047969818115 5.076735019683838 C 11.25047969818115 6.105337142944336 11.01565647125244 7.105080604553223 10.58769226074219 7.981669425964355 C 11.11678409576416 8.244802474975586 11.59344863891602 8.555346488952637 12.00509929656982 8.907364845275879 C 13.06508922576904 9.813815116882324 13.64885997772217 10.97653484344482 13.64885997772217 12.18135547637939 C 13.64885997772217 12.64298534393311 13.48333930969238 13.51263523101807 12.37482929229736 14.15033531188965 C 11.91660976409912 14.4139347076416 11.3289098739624 14.62373542785645 10.57814979553223 14.79171562194824 C 9.371969223022461 15.06160545349121 7.772369384765625 15.21023559570312 6.074019432067871 15.21023559570312 Z"/></g><g class="a" transform="translate(68.728 609.37)"><path class="c" d="M0,12.181c0-1.59,1.657-2.946,3.979-3.464A4.742,4.742,0,0,1,2.4,5.077,4.637,4.637,0,0,1,4.288,1.2,1.157,1.157,0,0,1,4.353.537C4.5.145,5.032-.235,5.025.18c-.006.368.311.477.605.5A3.086,3.086,0,0,1,6.074.647C8.1.647,9.75,2.63,9.75,5.077A4.74,4.74,0,0,1,8.17,8.717c2.322.518,3.979,1.874,3.979,3.464,0,1.019-3.037,1.529-6.075,1.529S0,13.2,0,12.181Z"/><path class="d" d="M 6.074019432067871 13.71023559570312 C 9.111849784851074 13.71023559570312 12.14885997772217 13.20033550262451 12.14885997772217 12.18135547637939 C 12.14885997772217 10.59101486206055 10.49207973480225 9.235694885253906 8.170109748840332 8.717494964599609 C 9.125139236450195 7.916924953460693 9.750479698181152 6.585695266723633 9.750479698181152 5.076735019683838 C 9.750479698181152 2.630195140838623 8.104499816894531 0.6470451951026917 6.074019432067871 0.6470451951026917 C 5.923869609832764 0.6470451951026917 5.776009559631348 0.6579551696777344 5.630579471588135 0.6790452003479004 C 5.336469650268555 0.6572751998901367 5.018869400024414 0.5487651824951172 5.025139331817627 0.1803251802921295 C 5.027183532714844 0.0524919182062149 4.977784156799316 -6.829833978372335e-07 4.904233455657959 -6.829833978372335e-07 C 4.738876342773438 -6.829833978372335e-07 4.451580047607422 0.2655461728572845 4.353289604187012 0.53742516040802 C 4.30674934387207 0.6624651551246643 4.213179588317871 0.9786551594734192 4.288309574127197 1.204125165939331 C 3.161039590835571 1.960695147514343 2.398379564285278 3.411315202713013 2.398379564285278 5.076735019683838 C 2.398379564285278 6.584865093231201 3.023719549179077 7.916924953460693 3.978749513626099 8.717494964599609 C 1.656779527664185 9.235694885253906 -4.879760808762512e-07 10.59101486206055 -4.879760808762512e-07 12.18135547637939 C -4.879760808762512e-07 13.20033550262451 3.037009477615356 13.71023559570312 6.074019432067871 13.71023559570312 M 6.074019432067871 15.21023559570312 C 4.376029491424561 15.21023559570312 2.776669502258301 15.06160545349121 1.570579528808594 14.79171562194824 C 0.8198695182800293 14.62372493743896 0.2321995049715042 14.41392517089844 -0.2260104864835739 14.150315284729 C -1.334490537643433 13.51261520385742 -1.500000476837158 12.64297485351562 -1.500000476837158 12.18135547637939 C -1.500000476837158 10.97653484344482 -0.9162304997444153 9.813815116882324 0.1437595188617706 8.907364845275879 C 0.5554108619689941 8.555346488952637 1.032074928283691 8.244802474975586 1.561166405677795 7.981669425964355 C 1.13320255279541 7.105080604553223 0.8983795046806335 6.105337142944336 0.8983795046806335 5.076735019683838 C 0.8983795046806335 3.275176286697388 1.618841886520386 1.575614094734192 2.818583011627197 0.4614406824111938 C 2.854820251464844 0.2868917882442474 2.902411699295044 0.1363754868507385 2.944593906402588 0.02206243015825748 C 3.220664262771606 -0.7352108955383301 3.981162071228027 -1.500004768371582 4.904229640960693 -1.500004768371582 C 5.340939521789551 -1.500004768371582 5.748559474945068 -1.330204844474792 6.051999568939209 -1.021884799003601 C 6.104801654815674 -0.9682328701019287 6.153459548950195 -0.9112389087677002 6.197859287261963 -0.8512445688247681 C 7.569049835205078 -0.8134080171585083 8.886014938354492 -0.1484103500843048 9.827919960021973 0.9864552021026611 C 10.74526977539062 2.091745138168335 11.25047969818115 3.544365167617798 11.25047969818115 5.076735019683838 C 11.25047969818115 6.105337142944336 11.01565647125244 7.105080604553223 10.58769226074219 7.981669425964355 C 11.11678409576416 8.244802474975586 11.59344863891602 8.555346488952637 12.00509929656982 8.907364845275879 C 13.06508922576904 9.813815116882324 13.64885997772217 10.97653484344482 13.64885997772217 12.18135547637939 C 13.64885997772217 12.64298534393311 13.48333930969238 13.51263523101807 12.37482929229736 14.15033531188965 C 11.91660976409912 14.4139347076416 11.3289098739624 14.62373542785645 10.57814979553223 14.79171562194824 C 9.371969223022461 15.06160545349121 7.772369384765625 15.21023559570312 6.074019432067871 15.21023559570312 Z"/></g><g class="b" transform="translate(74.762 609.927)"><path class="c" d="M 7.63672399520874 17.98751640319824 C 5.582834243774414 17.98751640319824 3.660094261169434 17.81037712097168 2.222704172134399 17.48872566223145 C 1.403854250907898 17.30549621582031 0.7510042190551758 17.07585716247559 0.2822842299938202 16.80621719360352 C -0.5709058046340942 16.31537628173828 -0.7499957680702209 15.72451686859131 -0.7499957680702209 15.31528663635254 C -0.7499957680702209 14.12085628509521 -0.1728657782077789 12.99598693847656 0.9190042018890381 12.06228637695312 C 1.643324255943298 11.44288921356201 2.560590267181396 10.93785572052002 3.613958835601807 10.57378482818604 C 2.75534987449646 9.429327964782715 2.265434265136719 7.939974784851074 2.265434265136719 6.382846355438232 C 2.265434265136719 4.285901546478271 3.153848648071289 2.327675580978394 4.609969615936279 1.158604621887207 C 4.627423286437988 0.8420330286026001 4.715873241424561 0.5612798929214478 4.769112110137939 0.417550265789032 C 4.973709583282471 -0.1445899307727814 5.565006732940674 -0.7500035166740417 6.165984153747559 -0.7500035166740417 C 6.408214092254639 -0.7500035166740417 6.633184432983398 -0.6569535136222839 6.799464225769043 -0.4879935085773468 C 6.908371925354004 -0.3773359060287476 7.03446102142334 -0.190134733915329 7.062396049499512 0.09795677661895752 C 7.06399393081665 0.09819387644529343 7.065610885620117 0.09842894971370697 7.067252159118652 0.09866242855787277 C 7.2559494972229 0.07532602548599243 7.447071075439453 0.06351650506258011 7.63672399520874 0.06351650506258011 C 9.09853458404541 0.06351650506258011 10.46426391601562 0.7390565276145935 11.48233413696289 1.965696454048157 C 12.46685409545898 3.15191650390625 13.00905418395996 4.720616340637207 13.00905418395996 6.382846355438232 C 13.00905418395996 7.939974784851074 12.51913833618164 9.429327964782715 11.66053009033203 10.57378482818604 C 12.71389865875244 10.93785572052002 13.63116455078125 11.44288921356201 14.35548400878906 12.06228637695312 C 15.44735431671143 12.99598693847656 16.02448463439941 14.12085628509521 16.02448463439941 15.31528663635254 C 16.02448463439941 15.72452640533447 15.84538459777832 16.31538581848145 14.99217414855957 16.80621719360352 C 14.52343463897705 17.07586669921875 13.87055397033691 17.30549621582031 13.05164432525635 17.48873710632324 C 11.6141242980957 17.81037712097168 9.691074371337891 17.98751640319824 7.63672399520874 17.98751640319824 Z"/><path class="d" d="M 7.63672399520874 17.23751640319824 C 11.4561243057251 17.23751640319824 15.27448463439941 16.59642601013184 15.27448463439941 15.31528663635254 C 15.27448463439941 13.31579685211182 13.1914644241333 11.61179637908936 10.27209377288818 10.96026611328125 C 11.47283458709717 9.953736305236816 12.25905418395996 8.280016899108887 12.25905418395996 6.382846355438232 C 12.25905418395996 3.306876420974731 10.18960380554199 0.8135164976119995 7.63672399520874 0.8135164976119995 C 7.447954177856445 0.8135164976119995 7.262054443359375 0.8272265195846558 7.079204082489014 0.8537464737892151 C 6.709424018859863 0.8263664841651917 6.31011438369751 0.6899464726448059 6.317994117736816 0.2267165035009384 C 6.320564746856689 0.06599441915750504 6.258457660675049 -2.091674787152442e-06 6.165985107421875 -2.091674787152442e-06 C 5.958086490631104 -2.091674787152442e-06 5.596875667572021 0.3338668942451477 5.473294258117676 0.6756864786148071 C 5.41478443145752 0.8329064846038818 5.297134399414062 1.230426549911499 5.391604423522949 1.513916492462158 C 3.974314212799072 2.465126514434814 3.015434265136719 4.288956642150879 3.015434265136719 6.382846355438232 C 3.015434265136719 8.278966903686523 3.80165433883667 9.953736305236816 5.002394199371338 10.96026611328125 C 2.083024263381958 11.61179637908936 4.224548320053145e-06 13.31579685211182 4.224548320053145e-06 15.31528663635254 C 4.224548320053145e-06 16.59642601013184 3.818364143371582 17.23751640319824 7.63672399520874 17.23751640319824 M 7.63672399520874 18.73751640319824 C 5.529384136199951 18.73751640319824 3.548484325408936 18.55394744873047 2.058924198150635 18.22062683105469 C 1.153624176979065 18.01804733276367 0.4501442313194275 17.76803588867188 -0.09170577675104141 17.45630645751953 C -1.317035794258118 16.75138664245605 -1.499995827674866 15.81231689453125 -1.499995827674866 15.31528663635254 C -1.499995827674866 13.91513633728027 -0.8140257596969604 12.55742645263672 0.4315642118453979 11.49227619171143 C 1.015448927879333 10.99297428131104 1.709754347801208 10.56258392333984 2.489836692810059 10.2126932144165 C 1.863051772117615 9.08430004119873 1.515434265136719 7.755877494812012 1.515434265136719 6.382846355438232 C 1.515434265136719 4.1780686378479 2.412157297134399 2.104209899902344 3.898668766021729 0.7786914706230164 C 3.940914630889893 0.5295187830924988 4.007620334625244 0.3144079148769379 4.064999103546143 0.1592331677675247 C 4.359068393707275 -0.6463435292243958 5.193582534790039 -1.500003457069397 6.165984153747559 -1.500003457069397 C 6.610814094543457 -1.500003457069397 7.02562427520752 -1.327433466911316 7.334014415740967 -1.014073491096497 C 7.431068897247314 -0.9154528379440308 7.514491081237793 -0.8053977489471436 7.583400726318359 -0.6862156391143799 C 7.601177215576172 -0.6863936185836792 7.618967056274414 -0.6864835023880005 7.63672399520874 -0.6864835023880005 C 9.325644493103027 -0.6864835023880005 10.89633464813232 0.08530650287866592 12.0594539642334 1.486706495285034 C 13.15546417236328 2.807246446609497 13.75905418395996 4.546056270599365 13.75905418395996 6.382846355438232 C 13.75905418395996 7.755877494812012 13.41143703460693 9.08430004119873 12.78465175628662 10.2126932144165 C 13.56473445892334 10.56258392333984 14.25903987884521 10.99297428131104 14.84292411804199 11.49227619171143 C 16.08851432800293 12.55742645263672 16.77448463439941 13.91513633728027 16.77448463439941 15.31528663635254 C 16.77448463439941 15.81232643127441 16.59152412414551 16.75140571594238 15.3661642074585 17.45632743835449 C 14.82428455352783 17.76804733276367 14.12076377868652 18.01805686950684 13.21540451049805 18.22063636779785 C 11.72573375701904 18.55394744873047 9.744514465332031 18.73751640319824 7.63672399520874 18.73751640319824 Z"/></g></g></svg>