<svg xmlns="http://www.w3.org/2000/svg" viewBox="-17716.797 -5463.897 20.783 19.549">
  <defs>
    <style>
      .cls-1 {
        fill: #fff;
        stroke: #fff;
        stroke-width: 0.5px;
      }
    </style>
  </defs>
  <g id="Group_4074" data-name="Group 4074" transform="translate(-17716.547 -5463.647)">
    <path id="Path_2027" data-name="Path 2027" class="cls-1" d="M5.859,958.592l-2.805,5.2a.436.436,0,0,0-.054.2v1.082a2.39,2.39,0,0,0,1.51,2.219v9.687a.449.449,0,0,0,.432.433h16.4a.449.449,0,0,0,.432-.433v-9.687a2.39,2.39,0,0,0,1.51-2.219V963.99a.436.436,0,0,0-.054-.2l-2.805-5.2a.441.441,0,0,0-.378-.23H6.237A.471.471,0,0,0,5.859,958.592Zm.634.636H8.442L7,963.558H4.153Zm2.859,0h2l-.539,4.329h-2.9Zm2.879,0h1.821l.539,4.329h-2.9Zm2.7,0h2l1.436,4.329h-2.9Zm2.913,0H19.79l2.34,4.329H19.285Zm-13.978,5.2H6.884v.649a1.51,1.51,0,1,1-3.021,0Zm3.884,0h3.021v.649a1.51,1.51,0,1,1-3.021,0Zm3.884,0h3.021v.649a1.51,1.51,0,1,1-3.021,0Zm3.884,0h3.021v.649a1.51,1.51,0,1,1-3.021,0Zm3.884,0H22.42v.649a1.51,1.51,0,1,1-3.021,0ZM7.316,966.439a2.366,2.366,0,0,0,3.884,0,2.366,2.366,0,0,0,3.884,0,2.366,2.366,0,0,0,3.884,0,2.368,2.368,0,0,0,1.942,1.015v9.091H12.278v-6.494a.449.449,0,0,0-.432-.433H7.531a.449.449,0,0,0-.432.433v6.494H5.374v-9.091A2.368,2.368,0,0,0,7.316,966.439Zm6.649,3.179a.448.448,0,0,0-.391.433v3.031a.449.449,0,0,0,.432.433h4.747a.449.449,0,0,0,.432-.433v-3.031a.449.449,0,0,0-.432-.433H13.964Zm-6,.866h3.452v6.061H7.963Zm6.473,0H18.32v2.165H14.436Z" transform="translate(-3 -958.362)"/>
  </g>
</svg>
