<?xml version="1.0" encoding="utf-8"?>
<!-- Generator: Adobe Illustrator 22.0.1, SVG Export Plug-In . SVG Version: 6.00 Build 0)  -->
<svg version="1.1" id="Layer_1" xmlns="http://www.w3.org/2000/svg" xmlns:xlink="http://www.w3.org/1999/xlink" x="0px" y="0px"
	 viewBox="0 0 200.8 201" style="enable-background:new 0 0 200.8 201;" xml:space="preserve">
<style type="text/css">
	.st0{fill:#57D589;}
	.st1{fill:#FFFFFF;}
	.st2{fill:#FEFEFE;}
	.st3{fill:#D2D2D2;}
	.st4{fill:#434343;}
	.st5{fill:none;stroke:#434343;stroke-width:5.684;stroke-linecap:round;stroke-linejoin:round;}
</style>
<g id="Group_3345" transform="translate(-4714 215.951)">
	<g id="Mask_Group_3" transform="translate(97.3 904.049)">
		<g id="woman_face-01" transform="translate(1.034 0)">
			<g id="Group_3296" transform="translate(0 0)">
				<g id="Group_3295">
					<g id="Group_3294">
						<path id="Path_1169" class="st0" d="M4814.9-1021c0-27.4-9.7-50.8-29.1-70.1c-19.3-19.2-42.6-28.8-69.9-28.8
							c-27.4,0-50.7,9.6-70.1,28.8c-19.3,19.4-28.9,42.7-28.9,70.1c0,27.3,9.6,50.6,28.9,69.9c19.4,19.4,42.7,29.1,70.1,29.1
							c27.3,0,50.6-9.7,69.9-29.1C4805.2-970.5,4814.9-993.8,4814.9-1021z"/>
					</g>
				</g>
			</g>
			<g id="Group_3299" transform="translate(33.497 15.912)">
				<g id="Group_3298">
					<g id="Group_3297">
						<path id="Path_1170" class="st1" d="M4714.1-949.1c-0.5-0.1-1-0.1-1.5,0c-0.3-0.2-0.7-0.4-1.1-0.6c-0.9-0.4-2-0.2-2.7,0.5
							c-0.1,0.1-0.2,0.2-0.3,0.3c-1.8-1.1-3.8-1.9-5.8-2.5l-5-0.8c-2.8-0.5-5.7-1.2-8.4-2.1c0-0.9-0.6-1.8-1.4-2.1
							c-0.8-0.5-1.8-0.6-2.6-0.1c-0.6,0.4-1.2,0.9-1.7,1.5c-0.8,0.6-1.9,0.8-2.9,0.7c0,0-1.1-0.2-3.2-0.5c-2.1-0.4-5.4-0.2-9.7,0.5
							c-2.8,0.5-4.6,0.9-5.3,1.1c-0.8,0.2-2.7,0.9-5.6,2.1c-2.1,0.8-3.3,1.3-3.5,1.5c-1.2,0.5-2.2,1.1-3.1,2c-0.9,0.9-1.6,2-1.9,3.3
							c-0.4,1.2-0.2,2.5,0.4,3.6c0.9,1.4,2.8,2.3,5.7,2.7c13.9,2.5,28.2,2.9,42.2,1.1c2.3-0.4,4.7-0.6,7.1-0.7
							c1.6,0,2.7,0.1,3.5,0.1c1.2,0,2.3-0.2,3.5-0.5c1-0.3,1.9-0.8,2.7-1.6c0.1,0.2,0.3,0.4,0.4,0.6c0.4,0.5,0.9,1,1.5,1.3
							c0.4,0.2,0.8,0.2,1.2,0.2c0.2,0.2,0.4,0.4,0.6,0.6c0.8,0.7,2.1,0.7,2.9,0.1c1-0.7,1.5-2,1.1-3.3l-0.5-2.4l-0.3-1
							c-0.5-1.3-1.5-2.3-2.6-3.1l-2.2-1.6C4715.2-948.6,4714.7-948.9,4714.1-949.1 M4678.6-946.1h2.6l0.5,0.1h-3.7L4678.6-946.1
							 M4741.6-1054.4c4-13.2-0.1-27.6-12.3-43.2c-12.3-15.6-28.1-23-47.4-22.4c-19.3,0.6-34.9,8.1-46.9,22.5
							c-12,14.3-18,31.7-18,52c0,2.9,0.8,4.6,2.3,5h9.5c-0.2,2-0.3,4.1-0.3,6.1c0,19.3,4.1,35.6,12.3,49.1c9.3,15.3,22.2,23,38.7,23
							c4.1,0,8.2-0.4,12.2-1.2c11.1-2.2,21.1-8.3,28-17.2c9.8-12.2,14.7-28.8,14.7-49.8v-2
							C4735.1-1033.9,4737.5-1041.2,4741.6-1054.4 M4697.9-1023c-0.9-0.7-1.3-1.8-1.3-2.9c0-1.1,0.5-2.2,1.3-3
							c0.9-0.8,2.1-1.2,3.3-1.2c1.2,0,2.4,0.4,3.3,1.2c0.9,0.8,1.3,1.9,1.3,3c0,1.1-0.5,2.2-1.3,2.9c-0.9,0.8-2.1,1.3-3.3,1.3
							C4700-1021.7,4698.8-1022.2,4697.9-1023 M4658.6-1022.9c-0.8-0.8-1.2-1.9-1.2-3c0-1.1,0.4-2.2,1.2-3.1
							c0.8-0.8,1.9-1.2,3.1-1.2c1.1,0,2.2,0.4,3,1.2c0.8,0.8,1.3,1.9,1.3,3.1c0,1.1-0.4,2.2-1.3,3c-0.8,0.8-1.9,1.3-3,1.3
							C4660.5-1021.7,4659.4-1022.1,4658.6-1022.9 M4680.2-983c4.3,0,9.5-1.4,15.8-4.2c-0.3,5.3-2.2,9.5-5.6,12.5
							c-3,2.8-6.9,4.2-10.9,4c-4,0-7.8-1.7-10.5-4.7c-3.2-3.4-4.6-7.9-4.5-13.5C4669.8-985.1,4675-983.1,4680.2-983L4680.2-983z"/>
					</g>
				</g>
			</g>
			<g id="Group_3302" transform="translate(33.497 15.912)">
				<g id="Group_3301">
					<g id="Group_3300">
						<path id="Path_1171" class="st2" d="M4733-1012.2c-0.5-0.7-0.9-1.3-1.3-2.1c-0.6,3-1.3,5.9-2.2,8.7
							c-2.5,14.6-10,26.6-22.3,35.9c-1.8,1.4-4,2.2-6.3,2.4c-2.5,0.2-4.9,0.4-7.4,0.6c-3.4,1.2-7.1,1.7-10.7,1.3
							c-0.5,0.1-1.1,0.2-1.6,0.2c0.2,0.2,0.3,0.4,0.4,0.7c0.2,0.4,0.3,0.9,0.4,1.3c0,0.3,0,0.6,0,0.9c1.1,0,2.1-0.1,3.1-0.2
							c0.3,0,0.6-0.1,0.9-0.1c0.2,0,0.3-0.1,0.5-0.1c1.3-1.6,3.1-2,5.4-1.1c0.2,0.1,0.4,0.2,0.6,0.3c10.8-2.3,20.4-8.3,27.2-17
							C4726.4-989,4730.8-999.6,4733-1012.2 M4631-1038.8c-0.8-0.1-1.6-0.2-2.4-0.4c-0.1,1.6-0.2,3.2-0.2,4.8
							c0,19.3,4.1,35.6,12.3,49.1c8.2,13.5,19.2,21,32.8,22.6c0.1,0,0.2,0,0.3-0.1c0.7-0.2,1.3-0.2,2-0.1c0.2-0.6,0.5-1.3,0.7-1.9
							c0-0.1,0.1-0.2,0.1-0.3c-14.2,0.2-24.5-6-31-18.6c-7-8.3-11.3-19.4-12.8-33.2c-0.7-6-0.9-12.1-0.7-18.2
							c-0.2-0.2-0.4-0.4-0.7-0.6l-0.8-0.8c-0.2-0.2-0.4-0.4-0.5-0.6c-0.1-0.2-0.2-0.4-0.3-0.7v-0.7
							C4630.4-1038.3,4630.7-1038.5,4631-1038.8 M4744-1048c0.3,0.5,0.5,1.1,0.7,1.7c3.2,4.7,4.3,10.5,3.3,17.3
							c-0.3,1.7-0.5,3.5-0.5,5.3c0.1,0.4,0.3,0.8,0.4,1.3c-0.2,0.6-0.3,1.2-0.5,1.8c0.1,4.8,0.9,9.6,2.6,14.1c0.7,2,2.2,3.7,4.2,4.6
							c1,0.5,1.8,1.1,2.5,1.9c0.6-3.6,0.3-7.3-0.9-10.7c-2.6-8-2.8-16.7-0.5-24.8c2.4-9.3-0.5-16.7-8.7-22c-2,0.6-3.5,2.1-4.2,4.1
							c-0.5,1-0.4,2.2,0.2,3.1C4743.1-1049.6,4743.6-1048.8,4744-1048 M4741.6-1054.4c4-13.2-0.1-27.6-12.3-43.2
							c-12.3-15.6-28.1-23-47.4-22.4c-19.3,0.6-34.9,8.1-46.9,22.5c-12,14.3-18,31.7-18,52c0,2.9,0.8,4.6,2.3,5h8
							c0.9-0.3,1.7-0.7,2.6-1.1c-1.9-2-3.2-4.5-3.7-7.3c-1.2-5.1-0.6-10.4,1.6-15.1c10.9-23.5,29.4-36.9,55.5-40.2
							c10.8-1.7,21.8,0.6,30.9,6.5c9.3,5.9,16.1,14.9,19.2,25.4c1.9,6.2,3.2,12.5,3.8,19c1,1.1,2.1,2,3.3,2.8
							C4740.7-1051.7,4741.1-1053,4741.6-1054.4L4741.6-1054.4z"/>
						<path id="Path_1172" class="st3" d="M4733.3-1072.3c-3.1-10.5-9.9-19.6-19.2-25.4c-9.1-5.9-20.1-8.3-30.9-6.5
							c-26.1,3.3-44.6,16.7-55.5,40.2c-2.2,4.7-2.8,10.1-1.6,15.1c0.5,2.7,1.8,5.3,3.7,7.3c-0.9,0.4-1.7,0.7-2.6,1.1
							c-0.2,0.1-0.4,0.2-0.6,0.3c0.1,0.4,0.2,0.7,0.4,0.7c0.5,0.1,1,0.2,1.5,0.3c0.8,0.2,1.6,0.3,2.4,0.4
							c10.3,1.6,20.8,0.7,30.6-2.6c8.8-2.9,17.7-5.7,26.6-8.3l0.7,0.7c2,2,4.4,3.6,7.1,4.6c7.7,3.2,16.1,4.1,24.2,2.6
							c0.1,1,0.4,1.9,0.9,2.7c0.5,0.9,1,1.8,1.4,2.7c0.1,0.3,0.3,0.5,0.4,0.7c0.4,0.4,0.7,0.9,0.9,1.4c1.3,2.6,3.8,4.4,6.7,4.7
							c1.8,4.3,2.3,8.9,1.5,13.5c-0.1,0.6-0.2,1.2-0.3,1.8c0.4,0.7,0.8,1.4,1.3,2.1c3.2,4.8,7.2,9.1,11.7,12.7
							c4.7,3.2,9.2,3.8,13.5,1.8c-0.3-0.8-0.8-1.6-1.4-2.2c-0.7-0.8-1.6-1.4-2.5-1.9c-2-0.9-3.5-2.6-4.2-4.6
							c-1.7-4.5-2.5-9.3-2.6-14.1c0.1-0.6,0.3-1.2,0.5-1.8c-0.1-0.4-0.3-0.8-0.4-1.3c0.1-1.8,0.3-3.5,0.5-5.3
							c1.1-6.9,0-12.7-3.3-17.3c-0.2-0.6-0.5-1.1-0.7-1.7c-0.5-0.5-1.1-0.9-1.7-1.3c-0.1-0.1-0.2-0.2-0.3-0.3c0,0,0,0.1-0.1,0.1
							c-0.2-0.2-0.5-0.3-0.7-0.5c-0.3-0.2-0.6-0.4-0.9-0.5c-1.2-0.8-2.3-1.7-3.3-2.8C4736.5-1059.7,4735.2-1066.1,4733.3-1072.3
							 M4736-1029.7C4736-1029.8,4736-1029.8,4736-1029.7c-0.2-0.4-0.4-0.8-0.5-1.2c0.1-0.1,0.1-0.1,0.1-0.2
							C4735.8-1030.7,4735.9-1030.2,4736-1029.7 M4697.2-1053c0.1-0.2,0.1-0.4,0.1-0.7c5.2,0.9,10.2,2.6,14.9,5.1
							c-4.9-1.3-10-2.6-15.2-3.7C4697-1052.6,4697.1-1052.8,4697.2-1053 M4686-962.6c-0.3,0.1-0.6,0.1-0.9,0.1
							c-1,0.2-1.9,0.3-2.9,0.3h-0.2c-1,0-2-0.1-3-0.2c-0.6-0.1-1.3-0.2-1.9-0.3c-0.3-0.1-0.7-0.1-1-0.1c0,0-0.1,0-0.1,0
							c-0.7-0.1-1.3,0-2,0.1c-0.1,0-0.2,0.1-0.3,0.1c-0.9,0.4-1.6,1-2.1,1.8c-0.3,0.6-0.2,1.3,0.1,1.9c0.5,0.9,0.9,1.9,1.1,2.9
							c-0.2,0-0.4,0-0.5,0.1c-1.8,0.4-2.1,0.5-0.9,0.5c0.5-0.1,1-0.1,1.5-0.1l-0.1,0.1c-0.5,0.2-0.7,0.4-0.5,0.5l0.1,0.1
							c0,0.1-0.1,0.2-0.1,0.3c-0.6,0-1.3,0.1-2,0.2h1.9c4.6,1,7.6,1.4,8.9,1.3c2.6,0,5.2,0,7.7,0.3c0,0,0.1,0,0.1,0
							c0-0.2,0.2-0.6,0.7-1.2c0.9-0.7,1.7-1.5,2.5-2.2v-0.1c0,0,0.1,0,0.1-0.1c0.5-0.8,0.5-1.9,0-2.7c-0.4-0.8-0.8-1.7-1.1-2.6
							c-0.2-0.7-0.6-1.2-1.3-1.5c-0.4-0.2-0.8-0.3-1.2-0.3c-0.7,0.3-1.4,0.5-2.2,0.7c0,0,0,0-0.1,0
							C4686.4-962.7,4686.2-962.7,4686-962.6 M4662.6-943.5h1c-0.3-0.2-0.5-0.4-0.8-0.5C4662.8-943.8,4662.7-943.6,4662.6-943.5z"/>
						<path id="Path_1173" class="st1" d="M4697.3-1053.7c0,0.2,0,0.5-0.1,0.7c-0.1,0.2-0.2,0.4-0.2,0.7c5.2,1.2,10.3,2.4,15.2,3.7
							C4707.5-1051.1,4702.5-1052.8,4697.3-1053.7 M4692.5-963.6c-0.2-0.1-0.4-0.2-0.6-0.3c-2.3-0.9-4.1-0.5-5.4,1.1c0,0,0,0,0.1,0
							c0.8-0.2,1.5-0.5,2.2-0.7c0.4,0,0.8,0.2,1.2,0.3c0.6,0.3,1.1,0.9,1.3,1.5c0.4,0.9,0.7,1.8,1.1,2.6c0.5,0.8,0.5,1.9,0,2.7
							c0,0-0.1,0.1-0.1,0.1v0.1c-0.8,0.7-1.7,1.5-2.5,2.2c-0.5,0.6-0.8,1-0.7,1.2c0,0-0.1,0-0.1,0c0,0,0,0.1,0,0.1
							c-3.9,0.5-6.5,0.8-7.9,1.1c-1.3,0.3-4.3-0.6-8.9-2.7c0,0.2-0.1,0.4-0.1,0.7c-0.3,1.7,0,3.4,0.8,4.9c-1.3-0.6-2.7-1.2-4.1-1.7
							c-0.8-0.4-1.7-0.4-2.5,0c-0.3-0.3-0.6-0.5-1-0.6c-0.3,0.1-0.6,0.2-0.9,0.3c-0.6,0.2-1.2,0.5-1.8,0.7l-0.6,0.4
							c-0.1,0-0.2,0-0.3-0.1c-2.4,1.7-4.6,3.8-6.5,6.1h7.5c0.1-0.2,0.1-0.4,0.2-0.5c0.1-0.1,0.2-0.3,0.3-0.5c0.6,0.5,1.3,0.8,2,1
							h36.7c0.3-0.3,0.5-0.6,0.7-1c0.4-1,0.6-2.1,0.5-3.1c0-0.5-0.1-1-0.3-1.5c-0.6-2.2-2.3-3.4-5-3.6v0.1c-1.4-0.1-2.8-0.1-4.1,0.1
							c0.4-2,0.6-4,0.6-6c0.1-1.7-0.4-3.3-1.2-4.7C4692.8-963.4,4692.7-963.5,4692.5-963.6 M4686.8-945.4c-0.2-0.4-0.4-0.7-0.8-1
							c0.9-0.2,1.7-0.4,2.7-0.7c0.3,0.2,0.6,0.4,0.9,0.6c0.1,0.1,0.1,0.1,0.1,0.1c-0.1,0.3-0.3,0.6-0.5,0.8c-0.7,0.9-1.4,1-2.2,0.3
							L4686.8-945.4 M4721.1-1039.1c-0.5-0.8-0.9-1.7-1-2.7c-8.2,1.5-16.6,0.6-24.2-2.6c-2.6-1-5-2.6-7.1-4.6l-0.7-0.7
							c-8.9,2.6-17.8,5.4-26.6,8.3c-9.8,3.3-20.4,4.2-30.6,2.6c-0.3,0.2-0.6,0.4-0.9,0.6v0.7c0,0.2,0.1,0.5,0.3,0.7
							c0.1,0.2,0.3,0.4,0.5,0.6l0.8,0.8c0.2,0.2,0.5,0.4,0.7,0.6c-0.2,6.1,0,12.1,0.7,18.2c1.5,13.8,5.8,24.8,12.8,33.2
							c7.6,9,18.3,14.8,32.1,17.4c-0.5,0.3-0.9,0.7-1.1,1.1c0,0.1,0,0.2-0.1,0.3c-0.3,0.6-0.5,1.2-0.7,1.9c0,0,0.1,0,0.1,0
							c0.3,0,0.7,0,1,0.1c0.7,0.1,1.3,0.2,1.9,0.3c1,0.1,2,0.2,3,0.2c0,0,0-0.1,0-0.1c0-0.3,0-0.6,0-0.9c-0.1-0.5-0.2-0.9-0.4-1.3
							c-0.1-0.2-0.2-0.5-0.4-0.7c-0.2-0.2-0.5-0.3-0.7-0.5c0.3,0,0.6,0.1,0.9,0.1c0.5,0.1,0.9,0.1,1.4,0.1c3.6,0.4,7.3,0,10.7-1.3
							c0.4-0.2,0.9-0.3,1.3-0.5c17.5-7.6,29.1-20.4,34.6-38.4c0.9-2.9,1.6-5.8,2.2-8.7c0.1-0.6,0.2-1.2,0.3-1.8
							c0.8-4.5,0.3-9.2-1.5-13.5c-2.9-0.3-5.4-2.1-6.7-4.7c-0.3-0.5-0.6-1-0.9-1.4c-0.1-0.2-0.3-0.5-0.4-0.7
							C4722.1-1037.3,4721.6-1038.2,4721.1-1039.1 M4672.4-996.6c-0.1-0.2-0.1-0.4-0.2-0.5c0.2-0.1,0.4-0.2,0.6-0.3
							c0-0.1,0-0.2,0.1-0.3c0.1-0.1,0.3-0.2,0.5-0.3c0.3-0.2,0.7-0.3,1.1-0.3h0.1c3.1-1.3,6.5-1.5,9.8-0.8c0.3,0,0.6,0,0.9-0.1
							c0,0,0.1,0,0.1,0c0,0,0,0,0,0c0.3,0.2,0.7,0.5,0.9,0.8c0.7,0.2,1.4,0.7,1.7,1.4c0.1,0.3,0.3,0.5,0.5,0.7
							c0,0.4-0.1,0.9-0.2,1.3c0,0.1-0.1,0.1-0.1,0.1c0,0.2-0.1,0.5-0.2,0.7l0.3,0.3c0.1,1-0.5,2-1.5,2.4c-3.4,1.6-7.2,2.1-10.9,1.5
							c-1-0.2-2-0.7-2.6-1.6c-0.5-0.6-0.8-1.4-0.8-2.2c-0.2-0.2-0.3-0.5-0.4-0.8l0.4-0.3v-0.5c-0.2-0.3-0.3-0.6-0.4-0.9
							C4672.1-996.4,4672.3-996.5,4672.4-996.6 M4712.7-943.5h8.4c-1.2-1.4-2.6-2.7-4-3.9c-2.1-1.8-4.4-3.5-6.9-4.9
							c-1,0.1-1.4,0.3-1.3,0.6c0.3,0.6,0.6,1.3,0.9,1.9C4710.8-947.7,4711.8-945.6,4712.7-943.5z"/>
					</g>
				</g>
			</g>
			<g id="Group_3305" transform="translate(33.497 15.912)">
				<g id="Group_3304">
					<g id="Group_3303" transform="translate(40.504 89.785)">
						<path id="Path_1174" class="st4" d="M4621.2-1111.5c1.1,0,2.2-0.4,3-1.3c0.8-0.8,1.3-1.9,1.3-3c0-1.2-0.4-2.3-1.3-3.1
							c-0.8-0.8-1.9-1.2-3-1.2c-1.1,0-2.2,0.4-3.1,1.2c-0.8,0.8-1.2,1.9-1.2,3.1c0,1.1,0.4,2.2,1.2,3
							C4618.9-1111.9,4620-1111.4,4621.2-1111.5 M4657.4-1118.7c-0.9,0.8-1.3,1.9-1.3,3c0,1.1,0.5,2.2,1.3,2.9
							c0.9,0.8,2.1,1.3,3.3,1.3c1.2,0,2.4-0.4,3.3-1.3c0.9-0.7,1.3-1.8,1.3-2.9c0-1.1-0.5-2.2-1.3-3c-0.9-0.8-2.1-1.2-3.3-1.2
							C4659.5-1120,4658.3-1119.5,4657.4-1118.7L4657.4-1118.7z"/>
					</g>
					<path id="Path_1175" class="st5" d="M4680.4-943.5c2.4-0.2,4.7-0.6,7-1.3c1.1-0.3,2.4-0.6,3.9-1c0-3.5,0.2-6.4,0.5-8.7
						c0.4-3,0.4-6-0.1-8.9c-4,0.8-8.1,1.2-12.2,1.2c-16.5,0-29.4-7.7-38.7-23c-8.2-13.5-12.3-29.9-12.3-49.1c0-2.1,0.1-4.1,0.3-6.1
						h-9.5c-1.6-0.4-2.3-2.1-2.3-5c0-20.3,6-37.7,18-52c12-14.4,27.6-21.9,46.9-22.5c19.4-0.6,35.2,6.9,47.4,22.4
						c12.2,15.6,16.3,30,12.3,43.2c-4,13.2-6.5,20.5-7.2,21.9v2c0,21-4.9,37.7-14.7,49.8c-7,8.9-16.9,15.1-28,17.3 M4743.5-1059.7
						h4.5c2.9,1.9,5.1,5.3,6.7,10.3c1.2,4,1.9,8.2,1.9,12.3c-0.1,3.9-0.6,7.8-1.5,11.7c-0.9,3.2-1.4,6.5-1.6,9.9
						c0.2,3.3,0.9,6.5,2.3,9.5c0.4,1.1,2,4.4,4.7,10h-8.4c-4-0.4-7.4-2.8-10.1-7.1c-3.5-5.5-6-8.7-7.5-9.7 M4695.2-1056.6
						c2.1,3.6,5.8,5.5,11.2,5.8c1.4,0.1,3.5,0.1,6.3,0.1c1.9-0.1,3.7,0.3,5.5,0.9c1,0.5,2,1.2,2.8,2c0.9-0.3,1.8-0.6,2.6-1
						c2.2-1.1,4.2-2.5,6.1-4.1 M4734.4-1032.5c-3.1-3.2-6-6.5-8.7-10c-1.4-1.8-3-3.6-4.6-5.2 M4701.3-1063.4
						c-1.2,2.2-10.9,6.5-29.1,12.9c-19,6.7-33.5,10-43.4,10h-0.1 M4675.4-998.9c3.3,3,6.7,3,10,0 M4680.2-983
						c-5.2,0-10.4-2-15.7-5.9c-0.2,5.6,1.3,10.2,4.5,13.5c2.7,3,6.5,4.7,10.5,4.7c4,0.2,8-1.2,10.9-4c3.4-3,5.3-7.2,5.6-12.5
						C4689.7-984.4,4684.4-983,4680.2-983z M4679.5-943.5c-5.3-0.2-8.3-2.7-9.1-7.5c-0.1-1-0.2-2.1-0.3-3.1v3.7 M4670.2-954.1
						c-5.4-0.1-9.5,0.4-12.2,1.5c-2.7,1.1-7,3.7-12.8,7.7 M4670.2-961.3v7.1 M4691.7-954.5c10.6,1.1,20.7,5.2,29.1,11.9"/>
				</g>
			</g>
		</g>
	</g>
</g>
</svg>
