<svg xmlns="http://www.w3.org/2000/svg" viewBox="7416 8711 25 13.637"><defs><style>.a{fill:#fff;}</style></defs><path class="a" d="M26,8.273a2.279,2.279,0,0,1-2.273,2.273,1.931,1.931,0,0,1-.58-.08L19.1,14.5a2.007,2.007,0,0,1,.08.591,2.273,2.273,0,0,1-4.545,0,2.007,2.007,0,0,1,.08-.591l-2.9-2.9a2.235,2.235,0,0,1-1.182,0l-5.17,5.182a1.931,1.931,0,0,1,.08.58,2.273,2.273,0,1,1-2.273-2.273,1.931,1.931,0,0,1,.58.08L9.034,10a2.007,2.007,0,0,1-.08-.591,2.273,2.273,0,0,1,4.545,0,2.007,2.007,0,0,1-.08.591l2.9,2.9a2.235,2.235,0,0,1,1.182,0l4.034-4.045a1.931,1.931,0,0,1-.08-.58,2.273,2.273,0,1,1,4.545,0Z" transform="translate(7415 8705)"/></svg>