<svg xmlns="http://www.w3.org/2000/svg" viewBox="-17714.232 -4833.894 23.186 22.851">
  <defs>
    <style>
      .cls-1 {
        fill: #fff;
      }
    </style>
  </defs>
  <g id="gift" transform="translate(-17714.232 -4833.893)">
    <path id="Path_2037" data-name="Path 2037" class="cls-1" d="M21.086,6.351h-2.6a3.117,3.117,0,0,0,1.534-2.619A3.434,3.434,0,0,0,16.406.524c-1.692,0-3.695,2.9-4.813,4.773C10.475,3.423,8.471.524,6.779.524A3.435,3.435,0,0,0,3.164,3.732,3.116,3.116,0,0,0,4.7,6.351H2.1A2.1,2.1,0,0,0,0,8.45v3.328a2.1,2.1,0,0,0,1.172,1.88v7.617a2.1,2.1,0,0,0,2.1,2.1h16.8a2.1,2.1,0,0,0,2.1-2.1v-7.7a2.1,2.1,0,0,0,1.016-1.795V8.451A2.1,2.1,0,0,0,21.086,6.351ZM2.1,11.965a.187.187,0,0,1-.187-.186V8.45A.187.187,0,0,1,2.1,8.264h8.536v3.7Zm10.449-3.7h8.537a.187.187,0,0,1,.187.186v3.328a.187.187,0,0,1-.187.186H12.549Zm3.856-5.827c.923,0,1.7.593,1.7,1.3s-.78,1.3-1.7,1.3H14.043A8.145,8.145,0,0,1,16.405,2.437Zm-9.652,0A7.927,7.927,0,0,1,9.142,5.028H6.779c-.923,0-1.7-.593-1.7-1.3A1.555,1.555,0,0,1,6.753,2.435ZM3.085,21.276v-7.4h7.551v7.585H3.271A.186.186,0,0,1,3.085,21.276Zm16.985.187h-7.52V13.878h7.707v7.4A.187.187,0,0,1,20.07,21.463Z" transform="translate(0 -0.524)"/>
  </g>
</svg>
