<svg xmlns="http://www.w3.org/2000/svg" viewBox="-4224.922 1252.852 32 32">
  <defs>
    <style>
      .cls-1 {
        fill: none;
      }

      .cls-2 {
        fill: #1a936f;
        stroke: #434343;
      }
    </style>
  </defs>
  <g id="ic_thumb_down_black_24px" transform="translate(-4224.922 1252.852)">
    <path id="Path_1148" data-name="Path 1148" class="cls-1" d="M0,0H32V32H0Z"/>
    <path id="Path_1149" data-name="Path 1149" class="cls-2" d="M19.667,3h-12A2.649,2.649,0,0,0,5.213,4.627l-4.027,9.4A2.634,2.634,0,0,0,1,15v2.547l.013.013L1,17.667a2.675,2.675,0,0,0,2.667,2.667H12.08l-1.267,6.093-.04.427a2.007,2.007,0,0,0,.587,1.413l1.413,1.4L21.56,20.88A2.65,2.65,0,0,0,22.334,19V5.667A2.675,2.675,0,0,0,19.667,3ZM25,3V19h5.333V3Z" transform="translate(0.333 1)"/>
  </g>
</svg>
