<svg xmlns="http://www.w3.org/2000/svg" viewBox="-12794 2427 14 18.375">
  <defs>
    <style>
      .cls-1 {
        fill: #747474;
      }
    </style>
  </defs>
  <g id="ic_lock_outline_24px" transform="translate(-13169 1946)">
    <path id="ic_lock_outline_24px-2" data-name="ic_lock_outline_24px" class="cls-1" d="M11,15a1.75,1.75,0,1,0-1.75-1.75A1.755,1.755,0,0,0,11,15Zm5.25-7.875h-.875V5.375a4.375,4.375,0,0,0-8.75,0v1.75H5.75A1.755,1.755,0,0,0,4,8.875v8.75a1.755,1.755,0,0,0,1.75,1.75h10.5A1.755,1.755,0,0,0,18,17.625V8.875A1.755,1.755,0,0,0,16.25,7.125ZM8.287,5.375a2.713,2.713,0,0,1,5.425,0v1.75H8.287Zm7.963,12.25H5.75V8.875h10.5Z" transform="translate(371 480)"/>
  </g>
</svg>
