<svg xmlns="http://www.w3.org/2000/svg" viewBox="-13080 2161 36 36">
  <defs>
    <style>
      .cls-1 {
        fill: #1a936f;
      }
    </style>
  </defs>
  <g id="Symbol_91_1" data-name="Symbol 91 – 1" transform="translate(-1735 -553)">
    <path id="Path_2005" data-name="Path 2005" class="cls-1" d="M32.924,26.4A2.237,2.237,0,0,0,33,25.969c0-2.592-1.956-5.942-2.471-6.779C30.5,13.551,29.5,9.44,25.383,8.034c.188-.587.527-1.37.842-2.091A11.23,11.23,0,0,0,27.4,2.383,2.26,2.26,0,0,0,25.017,0a1.706,1.706,0,0,0-1.737.968l-.034-.04A2.43,2.43,0,0,0,21.205,0a3.209,3.209,0,0,0-2.7,2.176,3.071,3.071,0,0,0-1.9.651,1.586,1.586,0,0,0-.514,1.19,5.841,5.841,0,0,0,1.153,2.632,13.971,13.971,0,0,1,.8,1.41C13.989,9.487,13,13.582,12.971,19.191A24.166,24.166,0,0,0,11.6,21.806a16.55,16.55,0,0,0-2.881.518,2.246,2.246,0,0,0-1.717-1.588L.9,19.515a.75.75,0,0,0-.9.735v12A.75.75,0,0,0,.75,33h4.7A2.237,2.237,0,0,0,7.5,31.583C9.182,32.384,16.949,36,20.25,36c2.909,0,8.9-2.944,12.858-4.891,1.034-.508,1.889-.929,2.443-1.172A.751.751,0,0,0,36,29.25C36,27.824,34.783,26.758,32.924,26.4ZM7.307,23.049,6.191,30.856a.753.753,0,0,1-.742.644H1.5V21.165l5.211,1.042A.75.75,0,0,1,7.307,23.049ZM17.634,3.927a2.387,2.387,0,0,1,1.34-.251.732.732,0,0,0,.77-.529c.133-.427.684-1.647,1.461-1.647a.975.975,0,0,1,.917.422,1.6,1.6,0,0,0,1.261.667,1.257,1.257,0,0,0,1.208-.881,1.108,1.108,0,0,1,.074-.156.726.726,0,0,1,.352-.052.774.774,0,0,1,.884.883,12.019,12.019,0,0,1-1.05,2.959,22.8,22.8,0,0,0-.924,2.335,13.534,13.534,0,0,0-4.407.007,12.07,12.07,0,0,0-1-1.828A4.865,4.865,0,0,1,17.634,3.927ZM14.351,19.812a.753.753,0,0,0,.119-.406C14.47,11.723,16.375,9,21.75,9s7.28,2.723,7.28,10.406a.753.753,0,0,0,.119.406c.023.037,2.351,3.677,2.351,6.156a.768.768,0,0,1-.056.284,31.1,31.1,0,0,0-5.983,1.256c-.2-2.152-2.962-2.914-5.812-3.493a12.878,12.878,0,0,1-3.2-1.181,8.987,8.987,0,0,0-3.187-1.038A22.111,22.111,0,0,1,14.351,19.812Zm18.1,9.951c-3.6,1.772-9.636,4.737-12.2,4.737-2.728,0-9.892-3.194-12.422-4.425l-.009,0,.883-6.18a14.408,14.408,0,0,1,4.048-.643,6.767,6.767,0,0,1,3.044.934,14.317,14.317,0,0,0,3.557,1.3C22.61,26.146,24,26.823,24,27.75a.444.444,0,0,1-.2.4c-.475.357-2.337.956-9.338-1.121a.75.75,0,0,0-.426,1.438A30.4,30.4,0,0,0,22,30a4.5,4.5,0,0,0,2.694-.65c.05-.037.087-.083.132-.123a.718.718,0,0,0,.14-.014A35.278,35.278,0,0,1,31.5,27.75c1.223,0,2.51.372,2.889,1.069C33.866,29.065,33.2,29.391,32.446,29.763Z" transform="translate(-11345 2714)"/>
  </g>
</svg>
