<svg xmlns="http://www.w3.org/2000/svg" viewBox="-16058 2349 286 252">
  <defs>
    <style>
      .cls-1 {
        fill: #747474;
        font-size: 22px;
        font-family: Roboto-Regular, Roboto;
      }

      .cls-2, .cls-5 {
        fill: none;
      }

      .cls-2 {
        stroke: #e3e3e3;
        stroke-width: 3px;
      }

      .cls-3 {
        fill: #e3e3e3;
      }

      .cls-4 {
        stroke: none;
      }
    </style>
  </defs>
  <g id="Group_3985" data-name="Group 3985" transform="translate(-16122 1976)">
    <text id="There_are_no_Earnings_yet_" data-name="There are no Earnings yet " class="cls-1" transform="translate(64 591)"><tspan x="19.271" y="21">There are no Earnings yet </tspan></text>
    <g id="Ellipse_136" data-name="Ellipse 136" class="cls-2" transform="translate(107 373)">
      <circle class="cls-4" cx="100" cy="100" r="100"/>
      <circle class="cls-5" cx="100" cy="100" r="98.5"/>
    </g>
    <path id="Path_2028" data-name="Path 2028" class="cls-3" d="M71.4,57.238a4.85,4.85,0,0,0,.166-.925c0-5.621-4.242-12.886-5.359-14.7-.052-12.228-2.224-21.143-11.16-24.192.407-1.273,1.143-2.971,1.827-4.535,1.312-3,2.551-5.837,2.551-7.719A4.9,4.9,0,0,0,54.25,0c-2.392,0-3.281,1.129-3.766,2.1l-.075-.086A5.269,5.269,0,0,0,45.983,0c-2.978,0-4.911,2.594-5.848,4.719a6.66,6.66,0,0,0-4.11,1.412A3.44,3.44,0,0,0,34.91,8.712c0,1.69,1.215,3.642,2.5,5.707a30.3,30.3,0,0,1,1.738,3.059c-8.813,3.1-10.968,11.976-11.02,24.139a52.405,52.405,0,0,0-2.967,5.672,35.889,35.889,0,0,0-6.247,1.123,4.87,4.87,0,0,0-3.722-3.444L1.946,42.318A1.626,1.626,0,0,0,0,43.912V69.935a1.626,1.626,0,0,0,1.626,1.626h10.19a4.851,4.851,0,0,0,4.454-3.072c3.64,1.735,20.484,9.577,27.642,9.577,6.309,0,19.293-6.383,27.884-10.607,2.243-1.1,4.1-2.014,5.3-2.541a1.628,1.628,0,0,0,.972-1.49C78.066,60.336,75.426,58.025,71.4,57.238Zm-55.55-7.257L13.426,66.912a1.633,1.633,0,0,1-1.609,1.4H3.253V45.9l11.3,2.26A1.627,1.627,0,0,1,15.845,49.981ZM38.239,8.515a5.177,5.177,0,0,1,2.907-.543,1.587,1.587,0,0,0,1.669-1.147C43.1,5.9,44.3,3.253,45.984,3.253a2.114,2.114,0,0,1,1.989.915,3.476,3.476,0,0,0,2.735,1.447A2.726,2.726,0,0,0,53.326,3.7a2.4,2.4,0,0,1,.16-.338,1.573,1.573,0,0,1,.764-.113,1.678,1.678,0,0,1,1.917,1.916c0,1.2-1.263,4.093-2.278,6.417a49.44,49.44,0,0,0-2,5.063,29.349,29.349,0,0,0-9.557.016A26.173,26.173,0,0,0,40.172,12.7C39.324,11.337,38.163,9.472,38.239,8.515ZM31.12,42.963a1.632,1.632,0,0,0,.259-.88c0-16.661,4.131-22.566,15.786-22.566s15.786,5.905,15.786,22.566a1.633,1.633,0,0,0,.259.881c.051.079,5.1,7.975,5.1,13.349a1.666,1.666,0,0,1-.121.615c-3.216.041-9.677,1.775-12.975,2.723-.442-4.668-6.423-6.32-12.6-7.575a27.927,27.927,0,0,1-6.949-2.562,19.489,19.489,0,0,0-6.912-2.252A47.947,47.947,0,0,1,31.12,42.963ZM70.36,64.541c-7.814,3.842-20.9,10.273-26.448,10.273-5.916,0-21.451-6.926-26.937-9.595-.007,0-.014,0-.02-.005l1.915-13.4a31.244,31.244,0,0,1,8.779-1.394c2.4,0,4.255.894,6.6,2.025a31.048,31.048,0,0,0,7.713,2.822c7.068,1.433,10.082,2.9,10.082,4.911a.963.963,0,0,1-.43.872c-1.029.774-5.068,2.073-20.25-2.432a1.627,1.627,0,0,0-.924,3.119c7.49,2.22,13.219,3.327,17.279,3.327,2.648,0,4.585-.47,5.842-1.409.108-.081.188-.18.286-.267a1.557,1.557,0,0,0,.3-.03c2.876-.884,11.024-3.181,14.159-3.181,2.652,0,5.443.807,6.266,2.319C73.438,63.029,72,63.735,70.36,64.541Z" transform="translate(168.142 434.142)"/>
  </g>
</svg>
