<svg xmlns="http://www.w3.org/2000/svg" viewBox="-12467.58 885.118 23.646 26.632">
  <path id="Path_1000" data-name="Path 1000" d="M121.61,884.75c-2.25,0-7.72-2.88-12.31-9.05-4.29-5.77-6.38-9.95-6.38-12.75a4.51,4.51,0,0,1,2.35-3.83l.2-.14a5.741,5.741,0,0,1,2.85-.86,1.65,1.65,0,0,1,1.59,1c.21.41,1.91,4.06,2.08,4.52a2,2,0,0,1-.64,2.3l-.14.1c-.41.28-1.16.8-1.27,1.44a1.3,1.3,0,0,0,.32,1c1.32,1.77,5.52,7,6.28,7.69a1.38,1.38,0,0,0,1.86.2,8.178,8.178,0,0,0,.77-.71l.05-.05a1.84,1.84,0,0,1,1.14-.37,2.641,2.641,0,0,1,1.48.5l4.15,2.79h0a1.94,1.94,0,0,1,.28,2.41C125.66,882.22,123.67,884.75,121.61,884.75ZM108.32,859.1a4.739,4.739,0,0,0-2.28.67l-.21.15a3.56,3.56,0,0,0-1.92,3c0,2.59,2,6.57,6.19,12.17,4.55,6.11,9.74,8.65,11.52,8.65,1.51,0,3.23-2.11,3.83-3.23a1,1,0,0,0,0-1.19l-4.12-2.76a1.68,1.68,0,0,0-.92-.33.93.93,0,0,0-.49.13,9.923,9.923,0,0,1-.83.77,2.38,2.38,0,0,1-3.17-.24c-.85-.8-5.17-6.17-6.4-7.83a2.25,2.25,0,0,1-.5-1.74,3.51,3.51,0,0,1,1.68-2.09l.13-.09a1,1,0,0,0,.29-1.15c-.15-.38-1.83-4-2-4.42s-.4-.46-.8-.46Z" transform="translate(-12570.5 27)"/>
</svg>
