<svg xmlns="http://www.w3.org/2000/svg" viewBox="2001 485.163 12.282 12.282">
  <defs>
    <style>
      .cls-1 {
        fill: #95989a;
      }
    </style>
  </defs>
  <path id="ic_call_24px" class="cls-1" d="M5.47,8.315a10.337,10.337,0,0,0,4.5,4.5l1.5-1.5a.678.678,0,0,1,.7-.164,7.784,7.784,0,0,0,2.436.389.684.684,0,0,1,.682.682V14.6a.684.684,0,0,1-.682.682A11.6,11.6,0,0,1,3,3.682.684.684,0,0,1,3.682,3H6.071a.684.684,0,0,1,.682.682,7.752,7.752,0,0,0,.389,2.436.685.685,0,0,1-.171.7Z" transform="translate(1998 482.163)"/>
</svg>
