<svg xmlns="http://www.w3.org/2000/svg" viewBox="7414.123 8759.997 29.803 24.925"><defs><style>.a{fill:#fff;stroke:#fff;stroke-width:0.5px;}</style></defs><g transform="translate(7414.374 8820.588)"><g transform="translate(-0.001 42.666)"><path class="a" d="M28.971,52.5l-3.68-1.9,3.68-1.9a.611.611,0,0,0,.007-1.081l-9.157-4.884a.612.612,0,0,0-.568,0l-4.6,2.376-4.6-2.376a.612.612,0,0,0-.568,0L.322,47.621A.611.611,0,0,0,.329,48.7l3.68,1.9L.329,52.5a.611.611,0,0,0-.007,1.081l4.561,2.432V61.59a.611.611,0,0,0,.323.539l9.157,4.884a.613.613,0,0,0,.575,0l9.157-4.884a.611.611,0,0,0,.323-.539V56.015l4.561-2.432a.611.611,0,0,0-.007-1.081Zm-9.442-8.536,7.848,4.186L23.96,49.915,15.981,45.8ZM1.923,48.151l7.848-4.186L13.319,45.8,5.34,49.915Zm0,4.9L5.34,51.289l7.979,4.118L9.771,57.238Zm12.116,12.4L6.1,61.224V56.666l3.375,1.8a.612.612,0,0,0,.568,0l3.993-2.061v9.047Zm.61-10.736L6.672,50.6l7.979-4.118L22.629,50.6Zm8.547,6.5-7.936,4.232V56.409l3.993,2.061a.612.612,0,0,0,.568,0l3.375-1.8v4.558Zm-3.668-3.986-3.548-1.831,7.979-4.118,3.417,1.764Z" transform="translate(0.001 -145.666)"/></g></g></svg>