<svg xmlns="http://www.w3.org/2000/svg" viewBox="7416.524 8951.024 23.151 23.151"><defs><style>.a{fill:#fff;}</style></defs><g transform="translate(7416.524 8951.023)"><g transform="translate(0 0.001)"><path class="a" d="M21.966,9.146l-1.625-.276a9.175,9.175,0,0,0-.653-1.577l.958-1.34a1.426,1.426,0,0,0-.155-1.843L19.05,2.671a1.42,1.42,0,0,0-1.011-.421,1.405,1.405,0,0,0-.827.266l-1.344.958A9.08,9.08,0,0,0,14.233,2.8L13.962,1.2A1.429,1.429,0,0,0,12.55,0H10.514A1.429,1.429,0,0,0,9.1,1.2L8.821,2.84A8.95,8.95,0,0,0,7.25,3.5L5.92,2.545A1.428,1.428,0,0,0,4.077,2.7L2.631,4.141a1.432,1.432,0,0,0-.155,1.843l.967,1.359A8.962,8.962,0,0,0,2.8,8.924l-1.606.271A1.429,1.429,0,0,0,0,10.607v2.036a1.429,1.429,0,0,0,1.195,1.412l1.644.281A8.95,8.95,0,0,0,3.5,15.908l-.953,1.325A1.426,1.426,0,0,0,2.7,19.075l1.441,1.441a1.42,1.42,0,0,0,1.011.421,1.405,1.405,0,0,0,.827-.266L7.341,19.7a9.149,9.149,0,0,0,1.528.629l.271,1.625a1.429,1.429,0,0,0,1.412,1.195h2.041a1.429,1.429,0,0,0,1.412-1.195l.276-1.625a9.175,9.175,0,0,0,1.577-.653l1.34.958a1.42,1.42,0,0,0,.832.266h0a1.42,1.42,0,0,0,1.011-.421l1.441-1.441a1.432,1.432,0,0,0,.155-1.843l-.958-1.344a9.11,9.11,0,0,0,.653-1.577l1.625-.271a1.429,1.429,0,0,0,1.195-1.412V10.559A1.411,1.411,0,0,0,21.966,9.146Zm-.111,3.448a.125.125,0,0,1-.106.126l-2.031.339a.649.649,0,0,0-.522.479,7.742,7.742,0,0,1-.842,2.026.654.654,0,0,0,.029.711l1.195,1.683a.132.132,0,0,1-.015.164l-1.441,1.441a.123.123,0,0,1-.092.039.119.119,0,0,1-.073-.024l-1.678-1.195a.654.654,0,0,0-.711-.029,7.742,7.742,0,0,1-2.026.842.642.642,0,0,0-.479.522l-.343,2.031a.125.125,0,0,1-.126.106H10.558a.125.125,0,0,1-.126-.106l-.339-2.031a.649.649,0,0,0-.479-.522,8.039,8.039,0,0,1-1.983-.812A.669.669,0,0,0,7.3,18.3a.637.637,0,0,0-.377.121l-1.693,1.2a.144.144,0,0,1-.073.024.13.13,0,0,1-.092-.039L3.627,18.166A.131.131,0,0,1,3.613,18L4.8,16.333a.662.662,0,0,0,.029-.716A7.669,7.669,0,0,1,3.98,13.6a.662.662,0,0,0-.522-.479l-2.046-.348a.125.125,0,0,1-.106-.126V10.607a.125.125,0,0,1,.106-.126l2.017-.339a.654.654,0,0,0,.527-.484,7.734,7.734,0,0,1,.827-2.031.646.646,0,0,0-.034-.706l-1.2-1.693a.132.132,0,0,1,.015-.164L5,3.623a.123.123,0,0,1,.092-.039.119.119,0,0,1,.073.024L6.834,4.8a.662.662,0,0,0,.716.029,7.669,7.669,0,0,1,2.022-.851.662.662,0,0,0,.479-.522L10.4,1.408a.125.125,0,0,1,.126-.106H12.56a.125.125,0,0,1,.126.106l.339,2.017a.654.654,0,0,0,.484.527,7.85,7.85,0,0,1,2.075.851.654.654,0,0,0,.711-.029l1.669-1.2a.144.144,0,0,1,.073-.024.13.13,0,0,1,.092.039l1.441,1.441a.131.131,0,0,1,.015.164L18.388,6.873a.654.654,0,0,0-.029.711A7.742,7.742,0,0,1,19.2,9.611a.642.642,0,0,0,.522.479l2.031.343a.125.125,0,0,1,.106.126v2.036Z" transform="translate(0 -0.001)"/><path class="a" d="M141.1,136a5,5,0,1,0,5,5A5,5,0,0,0,141.1,136Zm0,8.686a3.69,3.69,0,1,1,3.69-3.69A3.693,3.693,0,0,1,141.1,144.687Z" transform="translate(-129.518 -129.424)"/></g></g></svg>