<?xml version="1.0"?>
<svg version="1.1" xmlns="http://www.w3.org/2000/svg" xmlns:xlink="http://www.w3.org/1999/xlink" width="500" height="480">
    <desc iVinci="yes" version="4.6" gridStep="20" showGrid="yes" snapToGrid="yes" codePlatform="0"/>
    <g id="Layer1" name="Layer 1" opacity="1">
        <g id="Shape1">
            <desc shapeID="1" type="0" basicInfo-basicType="0" basicInfo-roundedRectRadius="12" basicInfo-polygonSides="6" basicInfo-starPoints="5" bounding="rect(-11.8951,-11.435,23.7903,22.87)" text="" font-familyName="" font-pixelSize="20" font-bold="0" font-underline="0" font-alignment="1" strokeStyle="0" markerStart="0" markerEnd="0" shadowEnabled="0" shadowOffsetX="0" shadowOffsetY="2" shadowBlur="4" shadowOpacity="160" blurEnabled="0" blurRadius="4" transform="matrix(21.0032,0,0,21.0032,250.335,240.671)" pers-center="0,0" pers-size="0,0" pers-start="0,0" pers-end="0,0" locked="0" mesh="" flag=""/>
            <path id="shapePath1" d="M250.323,401.274 C173.053,401.274 90.9226,378.747 90.9226,336.922 C90.9226,311.777 120.595,293.603 161.038,283.099 C163.705,289.034 166.95,294.692 170.718,299.986 C131.175,309.323 108.693,324.663 108.693,336.922 C108.693,342.374 113.215,348.451 121.686,354.332 C122.263,352.671 123.12,351.118 124.221,349.753 C132.873,338.544 159.115,329.326 196.108,324.732 C228.946,346.83 271.759,346.83 304.597,324.732 C341.453,329.306 367.65,338.475 376.406,349.62 C377.556,351.02 378.446,352.622 379.029,354.342 C387.51,348.461 392.022,342.334 392.022,336.922 C392.022,324.663 369.53,309.323 330.001,299.977 C333.775,294.687 337.014,289.029 339.667,283.089 C380.13,293.593 409.807,311.777 409.807,336.922 C409.826,378.747 327.638,401.274 250.323,401.274 M250.323,164.45 C293.189,164.455 327.941,199.463 327.931,242.639 C327.926,285.82 293.17,320.818 250.304,320.813 C207.452,320.808 172.71,285.825 172.695,242.659 C172.715,199.483 207.457,164.485 250.323,164.45 M496.963,362.791 L266.767,8.86626 C259.504,-2.28879 241.201,-2.28879 233.982,8.86626 L3.72244,362.791 C-2.22369,371.91 0.291794,384.164 9.35048,390.158 C11.1319,391.336 13.0943,392.214 15.1596,392.756 L245.326,480.207 C248.586,481.055 252.002,481.055 255.261,480.207 L485.506,392.756 C495.994,389.996 502.268,379.196 499.527,368.637 C498.989,366.572 498.123,364.605 496.963,362.82 L496.963,362.791 Z" style="stroke:none;fill-rule:evenodd;fill:#ffffff;fill-opacity:1;"/>
        </g>
    </g>
</svg>
