<svg xmlns="http://www.w3.org/2000/svg" viewBox="-15555 382.5 16.748 16.748">
  <defs>
    <style>
      .cls-1 {
        fill: #95989a;
      }
    </style>
  </defs>
  <path id="ic_language_24px" class="cls-1" d="M10.366,2a8.374,8.374,0,1,0,8.383,8.374A8.37,8.37,0,0,0,10.366,2Zm5.8,5.025H13.7a13.1,13.1,0,0,0-1.156-2.981A6.724,6.724,0,0,1,16.169,7.025ZM10.374,3.708a11.8,11.8,0,0,1,1.6,3.316h-3.2A11.8,11.8,0,0,1,10.374,3.708ZM3.893,12.049a6.551,6.551,0,0,1,0-3.35h2.83a13.83,13.83,0,0,0-.117,1.675,13.83,13.83,0,0,0,.117,1.675Zm.687,1.675H7.05a13.1,13.1,0,0,0,1.156,2.981A6.688,6.688,0,0,1,4.579,13.724Zm2.47-6.7H4.579A6.688,6.688,0,0,1,8.205,4.043,13.1,13.1,0,0,0,7.05,7.025ZM10.374,17.04a11.8,11.8,0,0,1-1.6-3.316h3.2A11.8,11.8,0,0,1,10.374,17.04Zm1.96-4.991H8.415a12.321,12.321,0,0,1-.134-1.675A12.214,12.214,0,0,1,8.415,8.7h3.919a12.214,12.214,0,0,1,.134,1.675A12.321,12.321,0,0,1,12.334,12.049Zm.209,4.656A13.1,13.1,0,0,0,13.7,13.724h2.47A6.724,6.724,0,0,1,12.543,16.705Zm1.482-4.656a13.83,13.83,0,0,0,.117-1.675A13.83,13.83,0,0,0,14.025,8.7h2.83a6.551,6.551,0,0,1,0,3.35Z" transform="translate(-15557 380.5)"/>
</svg>
