<svg xmlns="http://www.w3.org/2000/svg" viewBox="-12469.526 1031.99 27.615 29.91">
  <path id="Path_997" data-name="Path 997" d="M114.75,1005h0a15,15,0,0,0,0,29.9h0a15,15,0,0,0,0-29.91Zm.6,8.95a22,22,0,0,0,4.61-.61,26.729,26.729,0,0,1,.77,6h-5.38Zm0-1.2v-6.46c1.61.45,3.25,2.6,4.29,5.89a20.811,20.811,0,0,1-4.29.58Zm-1.2-6.48v6.48a20.74,20.74,0,0,1-4.32-.58c1.05-3.31,2.7-5.46,4.32-5.89Zm0,7.67v5.41h-5.42a26.771,26.771,0,0,1,.77-6,22,22,0,0,0,4.65.65Zm-6.62,5.41H101a13.69,13.69,0,0,1,3.11-8.12,21.941,21.941,0,0,0,4.22,1.78,28.23,28.23,0,0,0-.8,6.35Zm0,1.2a28.229,28.229,0,0,0,.82,6.34,22,22,0,0,0-4.22,1.78,13.69,13.69,0,0,1-3.11-8.12Zm1.2,0h5.42v5.4a21.93,21.93,0,0,0-4.65.62,26.741,26.741,0,0,1-.76-6.01Zm5.42,6.6v6.48c-1.62-.42-3.27-2.58-4.32-5.9A20.749,20.749,0,0,1,114.15,1027.15Zm1.2,6.47v-6.47a20.834,20.834,0,0,1,4.29.57c-1.04,3.28-2.64,5.45-4.29,5.9Zm0-7.66v-5.4h5.38a26.789,26.789,0,0,1-.77,6,21.932,21.932,0,0,0-4.61-.56Zm6.59-5.4h6.56a13.69,13.69,0,0,1-3.11,8.12,22.106,22.106,0,0,0-4.26-1.79,28.209,28.209,0,0,0,.81-6.33Zm0-1.2a28.21,28.21,0,0,0-.82-6.33,22.084,22.084,0,0,0,4.26-1.79,13.69,13.69,0,0,1,3.11,8.13Zm2.62-9a20.877,20.877,0,0,1-3.76,1.55,13.42,13.42,0,0,0-2.84-5.29,13.76,13.76,0,0,1,6.6,3.7Zm-13.05-3.73a13.42,13.42,0,0,0-2.83,5.27,20.826,20.826,0,0,1-3.72-1.54,13.75,13.75,0,0,1,6.54-3.77Zm-6.56,23a20.766,20.766,0,0,1,3.73-1.54,13.43,13.43,0,0,0,2.83,5.28,13.759,13.759,0,0,1-6.56-3.78Zm13,3.74a13.41,13.41,0,0,0,2.84-5.3,20.8,20.8,0,0,1,3.76,1.56,13.75,13.75,0,0,1-6.55,3.7Z" transform="translate(-12570.5 27)"/>
</svg>
