<svg xmlns="http://www.w3.org/2000/svg" viewBox="7162 2695 70 69.58">
  <defs>
    <style>
      .cls-1 {
        fill: #4d4d4d;
        font-size: 15px;
        font-family: Helvetica;
      }

      .cls-2 {
        fill: #25d366;
      }

      .cls-3 {
        fill: rgba(255,255,255,0);
      }

      .cls-4 {
        fill: #fff;
      }

      .cls-5 {
        fill: #2dbc63;
      }
    </style>
  </defs>
  <g id="Group_2400" data-name="Group 2400" transform="translate(7041 519)">
    <text id="WhatsApp" class="cls-1" transform="translate(121 2241.58)"><tspan x="0" y="0">WhatsApp</tspan></text>
    <g id="Group_2369" data-name="Group 2369" transform="translate(-99 -17)">
      <circle id="Ellipse_22" data-name="Ellipse 22" class="cls-2" cx="23" cy="23" r="23" transform="translate(231 2193)"/>
      <path id="Path_1210" data-name="Path 1210" class="cls-3" d="M155.084,2183.964a13.319,13.319,0,0,0-13.324,13.291,15.141,15.141,0,0,0,2.6,7.9l-1.623,4.851,4.984-1.662a14.559,14.559,0,0,0,7.343,2.215,13.322,13.322,0,1,0,0-26.643Z" transform="translate(99.24 18.749)"/>
      <path id="Path_1211" data-name="Path 1211" class="cls-4" d="M155.1,2210.626a14.561,14.561,0,0,1-7.343-2.215l-4.984,1.661,1.623-4.851a15.142,15.142,0,0,1-2.6-7.9,13.319,13.319,0,1,1,13.319,13.319Z" transform="translate(99.222 18.713)"/>
      <path id="Path_1212" data-name="Path 1212" class="cls-5" d="M153.666,2195.342a1.858,1.858,0,0,1,.653-.271h1.252a.709.709,0,0,1,.487.41c.155.349,1.207,2.824,1.285,3.013a1.041,1.041,0,0,1-.044,1.108c-.327.421-1.013,1.213-1.013,1.213a.487.487,0,0,0-.039.631,12.679,12.679,0,0,0,2.143,2.642,10.219,10.219,0,0,0,3.068,1.9c.659.216.8-.072,1.058-.4l1.041-1.323a.626.626,0,0,1,.8-.155c.554.244,3.134,1.5,3.134,1.5a.421.421,0,0,1,.332.41,2.841,2.841,0,0,1-.7,2.426,4.741,4.741,0,0,1-3.877,1.224,15.619,15.619,0,0,1-6.131-2.99,19.78,19.78,0,0,1-4.381-5.394,5.222,5.222,0,0,1-.6-2.769C152.166,2198.083,152.382,2196.139,153.666,2195.342Z" transform="translate(94.616 13.774)"/>
    </g>
  </g>
</svg>
