<svg xmlns="http://www.w3.org/2000/svg" viewBox="-13808.776 2163 36 36">
  <defs>
    <style>
      .cls-1 {
        fill: #1a936f;
      }
    </style>
  </defs>
  <g id="Symbol_92_1" data-name="Symbol 92 – 1" transform="translate(-15451 -4248)">
    <path id="Path_2006" data-name="Path 2006" class="cls-1" d="M21.273,6.838v-2.8c0-5.38-21.273-5.38-21.273,0V20.427c0,2.115,3.311,3.434,7.294,3.9-1.457.653-2.385,1.536-2.385,2.655V31.9c0,2.69,5.351,4.1,10.636,4.1s10.636-1.408,10.636-4.1V29.429C31.187,29.292,36,27.9,36,25.345V10.592C36,7.2,27.524,5.946,21.273,6.838Zm-10.636-5.2c5.823,0,9,1.621,9,2.455s-3.177,2.455-9,2.455-9-1.621-9-2.455S4.813,1.636,10.636,1.636Zm-9,4.731c1.985,1.195,5.5,1.814,9,1.814s7.015-.619,9-1.814v.813c-2.843.631-4.909,1.782-4.909,3.456v.484a25.952,25.952,0,0,1-4.091.334c-5.823,0-9-1.621-9-2.455V6.367ZM16.364,22.731c.156.094.318.185.492.271-.164-.007-.327-.013-.492-.018ZM1.636,11.277c1.985,1.195,5.5,1.814,9,1.814a27.736,27.736,0,0,0,4.091-.321v4.078a25.952,25.952,0,0,1-4.091.334c-5.823,0-9-1.621-9-2.455v-3.45Zm0,9.178V17c1.985,1.195,5.5,1.814,9,1.814a27.736,27.736,0,0,0,4.091-.321v4.078a25.952,25.952,0,0,1-4.091.334C4.813,22.909,1.636,21.288,1.636,20.454ZM24.545,31.909c0,.833-3.177,2.455-9,2.455s-9-1.621-9-2.455V29.276c1.985,1.195,5.5,1.814,9,1.814,3.348,0,6.718-.566,8.742-1.662.085,0,.173,0,.258.006v2.474Zm-9-2.455c-5.823,0-9-1.621-9-2.455s3.177-2.455,9-2.455,9,1.621,9,2.455S21.369,29.454,15.545,29.454Zm18.818-4.091c0,.792-2.9,2.279-8.182,2.426V27c0-1.022-.774-1.849-2.021-2.482.4.016.8.027,1.2.027,3.5,0,7.015-.619,9-1.814v2.632Zm0-4.909c0,.833-3.177,2.455-9,2.455s-9-1.621-9-2.455V17.822c1.985,1.195,5.5,1.814,9,1.814s7.015-.619,9-1.814Zm0-4.909c0,.833-3.177,2.455-9,2.455s-9-1.621-9-2.455V12.913c1.985,1.195,5.5,1.814,9,1.814s7.015-.619,9-1.814Zm-9-2.455c-5.823,0-9-1.621-9-2.455s3.177-2.455,9-2.455,9,1.621,9,2.455S31.187,13.091,25.364,13.091Z" transform="translate(1642.224 6411)"/>
  </g>
</svg>
