<svg xmlns="http://www.w3.org/2000/svg" viewBox="-19728 2343 286 257">
  <defs>
    <style>
      .cls-1 {
        fill: #747474;
        font-size: 22px;
        font-family: Roboto-Regular, Roboto;
      }

      .cls-2, .cls-3, .cls-4 {
        fill: none;
      }

      .cls-3 {
        stroke: #e3e3e3;
      }

      .cls-3, .cls-4 {
        stroke-width: 3px;
      }

      .cls-4 {
        stroke: #f7f7f7;
      }

      .cls-5, .cls-6 {
        stroke: none;
      }

      .cls-6 {
        fill: #e3e3e3;
      }
    </style>
  </defs>
  <g id="Group_3987" data-name="Group 3987" transform="translate(-19792 1976)">
    <text id="There_are_no_Results_yet_" data-name="There are no Results yet " class="cls-1" transform="translate(64 590)"><tspan x="25.609" y="21">There are no Results yet </tspan></text>
    <g id="Group_3984" data-name="Group 3984">
      <g id="Path_2026" data-name="Path 2026" class="cls-2" transform="translate(107 367)">
        <path class="cls-5" d="M100,0A100,100,0,0,1,200,100a101.813,101.813,0,0,1-.647,11.437A100,100,0,1,1,100,0Z"/>
        <path class="cls-6" d="M 100 197 C 112.193359375 197 124.0828018188477 194.7677154541016 135.3380584716797 190.3652191162109 C 140.7571105957031 188.2455291748047 146.0204772949219 185.6148376464844 150.9819183349609 182.5461730957031 C 155.8904418945313 179.51025390625 160.5596160888672 176.0111694335938 164.8597564697266 172.1461334228516 C 182.5483856201172 156.2472534179688 193.7395782470703 134.5683288574219 196.3718109130859 111.1027526855469 C 196.7944946289063 107.3357772827148 197 103.7040252685547 197 100 C 197 93.41672515869141 196.3369445800781 86.83844757080078 195.0292510986328 80.44794464111328 C 193.7551116943359 74.22135925292969 191.8539123535156 68.09672546386719 189.3784942626953 62.244140625 C 186.9477233886719 56.49713897705078 183.9389190673828 50.95391845703125 180.4356994628906 45.76847076416016 C 176.9652557373047 40.63150024414063 172.9795532226563 35.80083465576172 168.58935546875 31.4106388092041 C 164.1991729736328 27.02044486999512 159.3684997558594 23.03474998474121 154.2315216064453 19.56430625915527 C 149.0460815429688 16.06108283996582 143.5028686523438 13.05227756500244 137.755859375 10.62150001525879 C 131.9032745361328 8.146082878112793 125.7786407470703 6.244888782501221 119.5520553588867 4.970749855041504 C 113.1615524291992 3.663055658340454 106.5832748413086 3 100 3 C 93.41672515869141 3 86.83844757080078 3.663055658340454 80.44794464111328 4.970749855041504 C 74.22135925292969 6.244888782501221 68.09672546386719 8.146082878112793 62.244140625 10.62150001525879 C 56.49713897705078 13.05227756500244 50.95391845703125 16.06108283996582 45.76847076416016 19.56430625915527 C 40.63150024414063 23.03474998474121 35.80083465576172 27.02044486999512 31.4106388092041 31.4106388092041 C 27.02044486999512 35.80083465576172 23.03474998474121 40.63150024414063 19.56430625915527 45.76847076416016 C 16.06108283996582 50.95391845703125 13.05227756500244 56.49713897705078 10.62150001525879 62.244140625 C 8.146082878112793 68.09672546386719 6.244888782501221 74.22135925292969 4.970749855041504 80.44794464111328 C 3.663055658340454 86.83844757080078 3 93.41672515869141 3 100 C 3 106.5832748413086 3.663055658340454 113.1615524291992 4.970749855041504 119.5520553588867 C 6.244888782501221 125.7786407470703 8.146082878112793 131.9032745361328 10.62150001525879 137.755859375 C 13.05227756500244 143.5028686523438 16.06108283996582 149.0460815429688 19.56430625915527 154.2315216064453 C 23.03474998474121 159.3684997558594 27.02044486999512 164.1991729736328 31.4106388092041 168.58935546875 C 35.80083465576172 172.9795532226563 40.63150024414063 176.9652557373047 45.76847076416016 180.4356994628906 C 50.95391845703125 183.9389190673828 56.49713897705078 186.9477233886719 62.244140625 189.3784942626953 C 68.09672546386719 191.8539123535156 74.22135925292969 193.7551116943359 80.44794464111328 195.0292510986328 C 86.83844757080078 196.3369445800781 93.41672515869141 197 100 197 M 100 200 C 44.77152633666992 200 0 155.2284698486328 0 100 C 0 44.77152633666992 44.77152633666992 0 100 0 C 155.2284698486328 0 200 44.77152633666992 200 100 C 200 103.8107528686523 199.786865234375 107.5717468261719 199.3530883789063 111.4373092651367 C 193.7717437744141 161.1937713623047 151.417724609375 200 100 200 Z"/>
      </g>
      <g id="Group_3981" data-name="Group 3981" transform="translate(-275.559 684.388) rotate(-90)">
        <path id="Path_1928" data-name="Path 1928" class="cls-3" d="M23.485,0H63.25V46.97H23.485C10.515,46.97,0,40.42,0,23.485S10.515,0,23.485,0Z" transform="translate(246.469 429.559) rotate(90)"/>
        <path id="Path_1927" data-name="Path 1927" class="cls-3" d="M32.879,0a10.96,10.96,0,0,1,10.96,10.96V79.849a10.96,10.96,0,0,1-10.96,10.96C4.7,74.526,0,68.576,0,68.576V22.233Z" transform="translate(268.388 492.185) rotate(90)"/>
        <path id="Path_1929" data-name="Path 1929" class="cls-3" d="M16.51,7.35l-.853,21.007A7.828,7.828,0,1,1,0,28.357L2.686,0Z" transform="matrix(0.469, 0.883, -0.883, 0.469, 197.925, 447.541)"/>
      </g>
      <g id="Group_3982" data-name="Group 3982" transform="translate(17.886 9.455)">
        <line id="Line_379" data-name="Line 379" class="cls-3" x1="112.127" y2="110.458" transform="translate(137.942 398.5)"/>
      </g>
      <g id="Group_3983" data-name="Group 3983" transform="translate(15.886 7.455)">
        <line id="Line_379-2" data-name="Line 379" class="cls-4" x1="112.127" y2="110.458" transform="translate(137.942 398.5)"/>
      </g>
    </g>
  </g>
</svg>
