<svg xmlns="http://www.w3.org/2000/svg" xmlns:xlink="http://www.w3.org/1999/xlink" viewBox="1244 -14392 76 76"><defs><style>.a{fill:#16a764;}.b{fill:#fff;}.c{filter:url(#a);}</style><filter id="a" x="1245" y="-14384" width="73.1" height="80.964" filterUnits="userSpaceOnUse"><feOffset dy="10" input="SourceAlpha"/><feGaussianBlur stdDeviation="5" result="b"/><feFlood flood-opacity="0.161"/><feComposite operator="in" in2="b"/><feComposite in="SourceGraphic"/></filter></defs><g transform="translate(585 -14539)"><rect class="a" width="76" height="76" rx="5" transform="translate(659 147)"/><g class="c" transform="matrix(1, 0, 0, 1, -585, 14539)"><path class="b" d="M48.165,213.59l-.027.027-.027.054a11.064,11.064,0,0,0-1.06,2.556,9.3,9.3,0,0,0-.3,1.441l-.109.734v.272l-.027.109-.027,1.305.027.19v.218l.027.218a8.036,8.036,0,0,0,.272,1.659A7.886,7.886,0,0,0,47.54,224a9.238,9.238,0,0,0,.87,1.468l.489.625.054.027v.027l.218.218v.027H49.2v.027l.952.87.707.517a6.08,6.08,0,0,0,1.6.761,5.973,5.973,0,0,0,1.686.353h1.577l.381-.054.054-.027h.109l3.045-.761,1.088-.489,1.74-1.251.789-.789.082-.109.245-.245v-.027l.054-.054.054-.082.054-.054a1.537,1.537,0,0,0,.326-1.115,1.373,1.373,0,0,0-.544-1.006,1.435,1.435,0,0,0-1.006-.326,1.494,1.494,0,0,0-.979.408l-.136.136-.027.054h-.027l-.19.19-.082.054-.136.136L59.5,224.3l-.571.272-.163.054h-.027l-.109.054h-.027l-.054.027h-.082l-.054.027h-.054l-.082.027-2.366.326h-.136l-.054.027h-.272l-.816-.082a4.358,4.358,0,0,1-.734-.245l-.653-.435-.3-.272-.272-.326-.082-.082-.027-.082h-.027v-.027h-.027v-.027l-.163-.218V223.3h-.027v-.027l-.027-.027-.109-.163-.054-.109a5.323,5.323,0,0,1-.571-1.632,4.735,4.735,0,0,1-.027-.843v-.218l.027-.109v-.082l.054-.517v-.082l.027-.054.027-.109v-.109l.136-.571.6-1.468.381-.571.027-.054.027-.027.054-.082.054-.054v-.027l.054-.054.082-.109.544-.571,1.251-1.033q.218-.136.408-.272a13.389,13.389,0,0,1,9.871-2.556q5.873.517,8.864,4.242,3.045,4.215.408,10.55-3.725,8.647-16.152,18.9l-2.338-1.169-.082-.027h-.027v-.027h-.054l-.054-.027-.027-.027h-.054v-.027l-.326-.109-.163-.082q-.816-.3-1.414-.462l-.789-.218-1.278-.19H50.585l-.082.027h-.163l-.109.027-.218.027a13.06,13.06,0,0,0-1.795.381,10.321,10.321,0,0,0-1.006.381l-.054.027h-.027l-.952.544-1.332,1.115-.136.136-.027.054-.027.027H44.63l-.245.245-.082.136-.218.245L44,246.6l-.3.408-.435.952a5.235,5.235,0,0,0-.3,1.36L43,250.489l.027.082v.109l.054.163v.109l.027.082.027.19.027.027v.082l.027.054.054.163.027.136.054.136a6.336,6.336,0,0,0,.489,1.115,6.018,6.018,0,0,0,1.632,1.876l.462.353.136.054.054.054h.027l.054.027.272.163.082.027.027.027.082.054.082.027.027.027.054.027h.027l.544.245a6.915,6.915,0,0,0,2.067.517l1.224.054.109-.027.272-.027h.136l.109-.027.272-.027.245-.054h.136l.816-.218.054-.027.082-.027.109-.054.272-.082.054-.027h.027l.082-.027L56,254.676l.082-.027.082-.054.3-.163.082-.027.054-.054.163-.082a.3.3,0,0,0,.136-.109l.163-.082.435-.3v.027l.054-.054.245-.163.054-.054.082-.054.054-.027.054-.054,1.2-.979,6.934,2.665q1.958.571,2.665.734l.163.054,2.692.544q1.441.163,1.5.163a15.058,15.058,0,0,0,1.55.082H75.3l.19-.027H75.9l.027-.027.544-.054h.163l.054-.027,1.169-.217a13.9,13.9,0,0,0,1.441-.462,8.258,8.258,0,0,0,1.332-.653,6.032,6.032,0,0,0,1.169-.734l.979-.816,1.142-1.2.082-.109.082-.082.435-.544.625-.979.19-.245.517-.925a1.628,1.628,0,0,0,.136-1.332,1.767,1.767,0,0,0-.843-1.033,1.677,1.677,0,0,0-1.251-.163,1.734,1.734,0,0,0-1.033.707l-.027.054-.625.925-1.631,1.74-1.033.734-.761.408a6.776,6.776,0,0,1-1.822.517l-.734.082h-1.06l-2.583-.435-1.2-.326-.136-.054-.163-.027-3.181-1.169q-1.713-.68-3.861-1.767,12.182-10.5,15.907-19.551,4.188-9.952-1.2-16.533-4.351-5.765-13.052-6.526-8.185-.761-13.677,3.481a1.064,1.064,0,0,0-.245.136l-.245.218H51.51L50.5,210.6q-.544.544-1.115,1.224l-.925,1.278-.054.054-.082.163-.027.027v.027h-.027l-.082.163-.027.027q-.027.027,0,.027m5.9,36.056-.109.109-.163.109-.027.027-.054.027-.19.136-.054.054-1.9,1.088.027-.027-.163.082-.082.027-.027.027h-.027l-.054.054h-.054v.027h-.027l-.109.027-.054.027-.027.027-.109.027H50.8l-.027.027-.19.054h-.109l-.082.027h-.218l-.027.027h-.163l-.082-.027a2.182,2.182,0,0,1-.816-.163h-.054l-.054-.027h-.027l-.109-.054-.109-.027-.082-.054-.027-.027H48.6l-.054-.027h-.027V251.2l-.054-.027-.082-.054-.054-.054-.054-.027-.027-.027-.054-.027-.082-.082-.027-.054-.19-.218-.027-.082-.054-.082v-.027l-.027-.054-.027-.082-.027-.027v-.054l-.027-.054-.054-.19V249.7l.027-.136a1.211,1.211,0,0,1,.3-.381l.136-.136.109-.082.218-.218.218-.163.3-.163.027-.027.109-.054h.054l.381-.136,1.06-.136.136-.027h.3l.054.027h.109l.054.027h.082l.517.136.109.054.109.027.109.054a3.859,3.859,0,0,1,.87.408l.435.218.027.027h.027l.054.027.68.435v.027l-.109.082H54.12v.027l-.027.027Z" transform="translate(1217.03 -14584.7)"/></g></g></svg>
